<svg xmlns="http://www.w3.org/2000/svg" viewBox="0 0 127.46 112.93"><defs><style>.cls-1{fill:#428ecc;}.cls-2{fill:#1d1d1b;}.cls-3{fill:#3179a9;}.cls-4{fill:#fff;}</style></defs><title>Fichier 2</title><g id="Calque_2" data-name="Calque 2"><g id="Calque_1-2" data-name="Calque 1"><path class="cls-1" d="M3,102.5H1.41V91.14H3Z" transform="translate(-1.41)"/><path class="cls-1" d="M14,91.14h1.49V102.5H13.91V94l.08.5-2.79,6.43H10.09l-2.8-6.27L7.37,94v8.51H5.81V91.14H7.3l3.34,7.5Z" transform="translate(-1.41)"/><path class="cls-1" d="M26.45,91.14h1.49V102.5H26.38V94l.08.5-2.8,6.43H22.55l-2.79-6.27.08-.66v8.51H18.28V91.14h1.49l3.34,7.5Z" transform="translate(-1.41)"/><path class="cls-1" d="M32.41,102.1a3.61,3.61,0,0,1-1.4-1.47,4.66,4.66,0,0,1-.49-2.2V95.21A4.72,4.72,0,0,1,31,93a3.52,3.52,0,0,1,1.4-1.46,4.14,4.14,0,0,1,2.1-.52,4.08,4.08,0,0,1,2.09.52A3.46,3.46,0,0,1,38,93a4.72,4.72,0,0,1,.5,2.2v3.22a4.67,4.67,0,0,1-.5,2.2,3.54,3.54,0,0,1-1.4,1.47,4.08,4.08,0,0,1-2.09.52A4.14,4.14,0,0,1,32.41,102.1Zm3.34-1.37a2.11,2.11,0,0,0,.82-.9,2.85,2.85,0,0,0,.3-1.34V95.16a2.92,2.92,0,0,0-.3-1.35,2.11,2.11,0,0,0-.82-.9,2.64,2.64,0,0,0-2.48,0,2.13,2.13,0,0,0-.83.9,3,3,0,0,0-.29,1.35v3.33a3,3,0,0,0,.29,1.34,2.13,2.13,0,0,0,.83.9,2.56,2.56,0,0,0,2.48,0Z" transform="translate(-1.41)"/><path class="cls-2" d="M46.35,102.62l-.89-.52a3.58,3.58,0,0,1-1.39-1.49,4.78,4.78,0,0,1-.49-2.22V95.27A4.79,4.79,0,0,1,44.07,93a3.58,3.58,0,0,1,1.39-1.49A4,4,0,0,1,47.53,91a4,4,0,0,1,1.8.41,3.82,3.82,0,0,1,1.37,1.19,4.54,4.54,0,0,1,.75,1.77H49.81a2.61,2.61,0,0,0-.49-1,2.5,2.5,0,0,0-.82-.64,2.23,2.23,0,0,0-1-.23,2.18,2.18,0,0,0-1.22.34,2.14,2.14,0,0,0-.81.94,3.25,3.25,0,0,0-.29,1.41v3.12a3.24,3.24,0,0,0,.29,1.4,2.14,2.14,0,0,0,.81.94,2.25,2.25,0,0,0,1.22.33,2.35,2.35,0,0,0,1.79-.83,2.56,2.56,0,0,0,.49-1h1.64A4.67,4.67,0,0,1,50.7,101a3.82,3.82,0,0,1-1.38,1.18,3.87,3.87,0,0,1-1.79.42Z" transform="translate(-1.41)"/><path class="cls-2" d="M55.38,102.1A3.57,3.57,0,0,1,54,100.63a4.66,4.66,0,0,1-.49-2.2V95.21A4.72,4.72,0,0,1,54,93a3.48,3.48,0,0,1,1.41-1.46,4.46,4.46,0,0,1,4.18,0A3.46,3.46,0,0,1,61,93a4.6,4.6,0,0,1,.5,2.2v3.22a4.55,4.55,0,0,1-.5,2.2,3.54,3.54,0,0,1-1.4,1.47,4.46,4.46,0,0,1-4.18,0Zm3.33-1.37a2.19,2.19,0,0,0,.83-.9,3,3,0,0,0,.29-1.34V95.16a3,3,0,0,0-.29-1.35,2.19,2.19,0,0,0-.83-.9,2.63,2.63,0,0,0-2.48,0,2.13,2.13,0,0,0-.83.9,3,3,0,0,0-.29,1.35v3.33a3,3,0,0,0,.29,1.34,2.13,2.13,0,0,0,.83.9,2.56,2.56,0,0,0,2.48,0Z" transform="translate(-1.41)"/><path class="cls-2" d="M64,91.14h1.44L71,99.92l-.19.21v-9h1.58v11.35H71l-5.54-8.64.19-.21v8.85H64Z" transform="translate(-1.41)"/><path class="cls-2" d="M77.78,102.62l-.89-.52a3.58,3.58,0,0,1-1.39-1.49A4.78,4.78,0,0,1,75,98.39V95.27A4.79,4.79,0,0,1,75.5,93a3.58,3.58,0,0,1,1.39-1.49A4,4,0,0,1,79,91a4,4,0,0,1,1.8.41,3.9,3.9,0,0,1,1.37,1.19,4.54,4.54,0,0,1,.75,1.77H81.24a2.61,2.61,0,0,0-.49-1,2.5,2.5,0,0,0-.82-.64,2.23,2.23,0,0,0-1-.23,2.18,2.18,0,0,0-1.22.34,2.14,2.14,0,0,0-.81.94,3.25,3.25,0,0,0-.29,1.41v3.12a3.24,3.24,0,0,0,.29,1.4,2.14,2.14,0,0,0,.81.94,2.25,2.25,0,0,0,1.22.33,2.35,2.35,0,0,0,1.79-.83,2.56,2.56,0,0,0,.49-1h1.64a4.67,4.67,0,0,1-.75,1.78,3.87,3.87,0,0,1-3.17,1.6Z" transform="translate(-1.41)"/><path class="cls-2" d="M85.14,91.14h1.59V102.5H85.14Zm.77,0h6.53v1.52H85.91Zm0,5h5.67v1.52H85.91Zm0,4.89h6.53v1.51H85.91Z" transform="translate(-1.41)"/><path class="cls-2" d="M94.7,91.14h1.6V102.5H94.7Zm.82,5.44h3.64a1.68,1.68,0,0,0,.9-.24,1.65,1.65,0,0,0,.61-.69,2.61,2.61,0,0,0,0-2.05,1.74,1.74,0,0,0-.61-.7,1.68,1.68,0,0,0-.9-.24H95.52V91.14H99.1a3.57,3.57,0,0,1,1.79.44,2.94,2.94,0,0,1,1.2,1.22,3.86,3.86,0,0,1,.43,1.83,3.79,3.79,0,0,1-.43,1.82,2.94,2.94,0,0,1-1.2,1.22,3.67,3.67,0,0,1-1.79.43H95.52Z" transform="translate(-1.41)"/><path class="cls-2" d="M103.1,91.14h8v1.52h-8Zm3.21.93h1.6V102.5h-1.6Z" transform="translate(-1.41)"/><circle class="cls-1" cx="52.94" cy="41.04" r="41.04"/><path class="cls-3" d="M79.38,34l-21-11.83-13.56.1-4.27-4.4-6.37,9.91,0,.5-2.33,1.62v4.4l1.94-1.52L30.85,65.49l28.87,16C90,75,94.16,48.73,94.16,48.73Z" transform="translate(-1.41)"/><polygon class="cls-4" points="30.36 17.99 39.52 17.99 39.52 23.49 30.36 29.85 30.36 17.99"/><polygon class="cls-4" points="30.36 34.25 39.52 26.55 39.52 65.67 29.87 65.67 30.36 34.25"/><polygon class="cls-4" points="43.8 22.39 54.44 12.61 78.4 34.13 78.4 43.21 68.74 43.21 68.74 36.82 54.68 23.92 43.8 34.13 43.8 22.39"/><polygon class="cls-4" points="42.95 57.35 69.13 57.35 69.13 49.65 78.4 49.65 78.4 65.67 42.95 65.67 42.95 57.35"/><rect class="cls-4" x="49.53" y="39.87" width="4.4" height="4.4"/><rect class="cls-4" x="49.53" y="45.25" width="4.4" height="4.4"/><rect class="cls-4" x="55.16" y="45.25" width="4.4" height="4.4"/><rect class="cls-4" x="55.16" y="39.87" width="4.4" height="4.4"/><path class="cls-1" d="M128.86,83.42v3H116.51v-3Zm-4.62,7.66h-3.11V78.72h3.11Z" transform="translate(-1.41)"/><path class="cls-2" d="M17.85,112a1.66,1.66,0,0,1-.68-.73,2.47,2.47,0,0,1-.23-1.14v-3.62h.79v3.65a1.37,1.37,0,0,0,.32,1,1.11,1.11,0,0,0,.88.34,1.15,1.15,0,0,0,.89-.34,1.37,1.37,0,0,0,.31-1v-3.65h.8v3.62a2.46,2.46,0,0,1-.24,1.14A1.6,1.6,0,0,1,20,112a2.55,2.55,0,0,1-2.16,0Z" transform="translate(-1.41)"/><path class="cls-2" d="M22.26,106.47H23l2.78,4.39-.1.1v-4.49h.79v5.67h-.73L23,107.82l.1-.1v4.42h-.79Z" transform="translate(-1.41)"/><path class="cls-2" d="M27.86,106.47h.79v5.68h-.79Zm.38,0h3.27v.75H28.24Zm0,2.48h2.84v.75H28.24Zm0,2.44h3.27v.76H28.24Z" transform="translate(-1.41)"/><path class="cls-2" d="M34.8,112.15H34v-5.68h.79Z" transform="translate(-1.41)"/><path class="cls-2" d="M36.21,106.47H37v5.68h-.8Zm.54,4.92H38a1.37,1.37,0,0,0,1-.33,1.2,1.2,0,0,0,.34-.92v-1.67a1.2,1.2,0,0,0-.34-.92,1.37,1.37,0,0,0-1-.33H36.75v-.75H38a2.6,2.6,0,0,1,1.17.23,1.67,1.67,0,0,1,.74.7,2.21,2.21,0,0,1,.25,1.1v1.61a2.21,2.21,0,0,1-.25,1.1,1.67,1.67,0,0,1-.74.7,2.66,2.66,0,0,1-1.17.24H36.75Z" transform="translate(-1.41)"/><path class="cls-2" d="M41.46,106.47h.8v5.68h-.8Zm.39,0h3.26v.75H41.85Zm0,2.48h2.83v.75H41.85Zm0,2.44h3.26v.76H41.85ZM43,105.61l1.07-1,.52.53-1.15.89Z" transform="translate(-1.41)"/><path class="cls-2" d="M46.24,106.47H47v5.68h-.8Zm.39,0h3.26v.75H46.63Zm0,2.48h2.83v.75H46.63Zm0,2.44h3.26v.76H46.63Z" transform="translate(-1.41)"/><path class="cls-2" d="M50.83,111.35h.79v.8l-.79.78Z" transform="translate(-1.41)"/><path class="cls-2" d="M55,112a1.6,1.6,0,0,1-.68-.73,2.46,2.46,0,0,1-.24-1.14v-3.62h.8v3.65a1.37,1.37,0,0,0,.31,1,1.15,1.15,0,0,0,.89.34,1.12,1.12,0,0,0,.88-.34,1.37,1.37,0,0,0,.32-1v-3.65h.8v3.62a2.46,2.46,0,0,1-.24,1.14,1.6,1.6,0,0,1-.68.73A2.55,2.55,0,0,1,55,112Z" transform="translate(-1.41)"/><path class="cls-2" d="M59.44,106.47h.73l2.77,4.39-.09.1v-4.49h.79v5.67h-.73l-2.77-4.32.09-.1v4.42h-.79Z" transform="translate(-1.41)"/><path class="cls-2" d="M67.68,112.2l-.45-.26a1.83,1.83,0,0,1-.69-.74,2.45,2.45,0,0,1-.24-1.11v-1.56a2.52,2.52,0,0,1,.24-1.12,1.9,1.9,0,0,1,.69-.74,2.08,2.08,0,0,1,1-.26,1.93,1.93,0,0,1,.9.21,2,2,0,0,1,.69.59,2.32,2.32,0,0,1,.37.88h-.82a1.26,1.26,0,0,0-.25-.47,1.11,1.11,0,0,0-.4-.32,1.07,1.07,0,0,0-.49-.12,1.14,1.14,0,0,0-.61.17,1.09,1.09,0,0,0-.4.47,1.61,1.61,0,0,0-.15.71v1.56a1.57,1.57,0,0,0,.15.7,1.09,1.09,0,0,0,.4.47,1.14,1.14,0,0,0,.61.17,1.21,1.21,0,0,0,.49-.11,1.08,1.08,0,0,0,.4-.31,1.2,1.2,0,0,0,.25-.49h.82a2.18,2.18,0,0,1-.38.88,1.86,1.86,0,0,1-.68.6,2.12,2.12,0,0,1-.9.2Z" transform="translate(-1.41)"/><path class="cls-2" d="M72.19,111.94a1.76,1.76,0,0,1-.7-.73,2.41,2.41,0,0,1-.25-1.1V108.5a2.41,2.41,0,0,1,.25-1.1,1.76,1.76,0,0,1,.7-.73,2,2,0,0,1,1-.26,2,2,0,0,1,1.05.26,1.76,1.76,0,0,1,.7.73,2.41,2.41,0,0,1,.25,1.1v1.61a2.41,2.41,0,0,1-.25,1.1,1.76,1.76,0,0,1-.7.73,2,2,0,0,1-1.05.26A2,2,0,0,1,72.19,111.94Zm1.67-.68a1,1,0,0,0,.41-.45,1.44,1.44,0,0,0,.15-.67v-1.67a1.44,1.44,0,0,0-.15-.67,1,1,0,0,0-.41-.45,1.24,1.24,0,0,0-.62-.16,1.27,1.27,0,0,0-.62.16,1.11,1.11,0,0,0-.41.45,1.44,1.44,0,0,0-.15.67v1.67a1.44,1.44,0,0,0,.15.67,1,1,0,0,0,.41.45,1.17,1.17,0,0,0,.62.16A1.15,1.15,0,0,0,73.86,111.26Z" transform="translate(-1.41)"/><path class="cls-2" d="M76.53,106.47h.72L80,110.86l-.1.1v-4.49h.79v5.67H80l-2.77-4.32.09-.1v4.42h-.78Z" transform="translate(-1.41)"/><path class="cls-2" d="M83.4,112.2l-.45-.26a1.71,1.71,0,0,1-.69-.74,2.33,2.33,0,0,1-.25-1.11v-1.56a2.4,2.4,0,0,1,.25-1.12,1.76,1.76,0,0,1,.69-.74,2.06,2.06,0,0,1,1-.26,2,2,0,0,1,.9.21,1.83,1.83,0,0,1,.68.59,2.17,2.17,0,0,1,.37.88h-.81a1.26,1.26,0,0,0-.25-.47,1.14,1.14,0,0,0-.41-.32,1.07,1.07,0,0,0-.48-.12,1.09,1.09,0,0,0-.61.17,1.11,1.11,0,0,0-.41.47,1.76,1.76,0,0,0-.14.71v1.56a1.71,1.71,0,0,0,.14.7,1.11,1.11,0,0,0,.41.47,1.09,1.09,0,0,0,.61.17,1.2,1.2,0,0,0,.89-.42,1.2,1.2,0,0,0,.25-.49h.81a2.17,2.17,0,0,1-.37.88,2,2,0,0,1-.69.6,2,2,0,0,1-.89.2Z" transform="translate(-1.41)"/><path class="cls-2" d="M87.08,106.47h.79v5.68h-.79Zm.38,0h3.27v.75H87.46Zm0,2.48H90.3v.75H87.46Zm0,2.44h3.27v.76H87.46Z" transform="translate(-1.41)"/><path class="cls-2" d="M91.86,106.47h.79v5.68h-.79Zm.41,2.71h1.81a.85.85,0,0,0,.46-.12.77.77,0,0,0,.3-.34,1.19,1.19,0,0,0,.11-.51,1.21,1.21,0,0,0-.11-.52.77.77,0,0,0-.3-.34.78.78,0,0,0-.46-.13H92.27v-.75h1.79a1.83,1.83,0,0,1,.89.21,1.53,1.53,0,0,1,.6.61,2,2,0,0,1,.21.92,1.91,1.91,0,0,1-.21.91,1.53,1.53,0,0,1-.6.61,1.83,1.83,0,0,1-.89.21H92.27Z" transform="translate(-1.41)"/><path class="cls-2" d="M96.06,106.47h4v.75h-4Zm1.6.46h.8v5.22h-.8Z" transform="translate(-1.41)"/></g></g></svg>