<svg xmlns="http://www.w3.org/2000/svg" viewBox="0 0 82.07 82.07"><defs><style>.cls-1{fill:#428ecc;}.cls-2{fill:#3179a9;}.cls-3{fill:#fff;}</style></defs><title>Fichier 3</title><g id="Calque_2" data-name="Calque 2"><g id="Calque_1-2" data-name="Calque 1"><circle class="cls-1" cx="41.04" cy="41.04" r="41.04"/><path class="cls-2" d="M66,34,45,22.12l-13.59.1-4.29-4.4-6.38,9.91-.05.5-2.33,1.62v4.4l1.94-1.52-2,22.88a4.7,4.7,0,0,1,.75,4c0,.12,0,.24,0,.36l.06.52c0-.25-.07-.51-.1-.76h0c.08.61.17,1.22.24,1.83a7,7,0,0,1-.8,4.45L46.33,81.49C76.65,75,80.85,48.73,80.85,48.73Z"/><polygon class="cls-3" points="18.45 17.99 27.62 17.99 27.62 23.49 18.45 29.85 18.45 17.99"/><polygon class="cls-3" points="18.45 34.25 27.62 26.55 27.62 65.67 17.96 65.67 18.45 34.25"/><polygon class="cls-3" points="31.9 22.39 42.53 12.61 66.49 34.13 66.49 43.21 56.83 43.21 56.83 36.82 42.78 23.92 31.9 34.13 31.9 22.39"/><polygon class="cls-3" points="31.04 57.35 57.22 57.35 57.22 49.65 66.49 49.65 66.49 65.67 31.04 65.67 31.04 57.35"/><rect class="cls-3" x="37.63" y="39.87" width="4.4" height="4.4"/><rect class="cls-3" x="37.63" y="45.25" width="4.4" height="4.4"/><rect class="cls-3" x="43.25" y="45.25" width="4.4" height="4.4"/><rect class="cls-3" x="43.25" y="39.87" width="4.4" height="4.4"/><path class="cls-2" d="M43.25,82.07s30.67-.61,38.07-33.14l-.47-.2"/><polyline class="cls-2" points="18.42 66.06 17.96 65.67 43.25 82.08 49.19 81.26"/></g></g></svg>